<?xml version="1.0" encoding="UTF-8" standalone="no"?>
<!-- Created with Inkscape (http://www.inkscape.org/) -->

<svg
   width="109.65974"
   height="83.742218"
   viewBox="0 0 109.65974 83.742218"
   version="1.1"
   id="svg5"
   xml:space="preserve"
   inkscape:version="1.2.2 (732a01da63, 2022-12-09)"
   sodipodi:docname="Logo.svg"
   inkscape:export-filename="Desktop\Logos\Logo.svg"
   inkscape:export-xdpi="96"
   inkscape:export-ydpi="96"
   xmlns:inkscape="http://www.inkscape.org/namespaces/inkscape"
   xmlns:sodipodi="http://sodipodi.sourceforge.net/DTD/sodipodi-0.dtd"
   xmlns="http://www.w3.org/2000/svg"
   xmlns:svg="http://www.w3.org/2000/svg"><sodipodi:namedview
     id="namedview7"
     pagecolor="#ffffff"
     bordercolor="#000000"
     borderopacity="0.25"
     inkscape:showpageshadow="true"
     inkscape:pageopacity="0.0"
     inkscape:pagecheckerboard="0"
     inkscape:deskcolor="#d1d1d1"
     inkscape:document-units="px"
     showgrid="false"
     showborder="true"
     borderlayer="true"
     shape-rendering="crispEdges"
     inkscape:zoom="4.7376154"
     inkscape:cx="-3.0606114"
     inkscape:cy="64.483917"
     inkscape:window-width="1920"
     inkscape:window-height="991"
     inkscape:window-x="-9"
     inkscape:window-y="-9"
     inkscape:window-maximized="1"
     inkscape:current-layer="layer2" /><defs
     id="defs2" /><g
     inkscape:groupmode="layer"
     id="layer2"
     inkscape:label="Logo"
     transform="translate(-6.1139913,-16.95644)"><g
       id="g789"><ellipse
         style="fill:#1a1a1a;stroke-width:1.15121"
         id="path528"
         cx="80.190575"
         cy="57.267647"
         rx="35.308788"
         ry="41.643139"
         transform="matrix(0.9997531,0.02222021,0.00527709,0.99998608,0,0)" /><ellipse
         style="fill:#ffffff;stroke-width:1.15122"
         id="path528-1"
         cx="80.235687"
         cy="57.866215"
         rx="25.178444"
         ry="30.487682"
         transform="matrix(0.99980708,0.01964168,0.00805961,0.99996752,0,0)" /><path
         style="fill:#1a1a1a;stroke-width:1"
         d="m 49.939939,33.81789 5.533882,-7.534984 3.543059,-3.447076 -9.150886,-4.694936 -7.604729,-1.184454 -8.787473,0.779407 -6.755231,2.430903 -6.438527,4.663498 -4.671781,5.198481 -3.115608,3.979356 -3.0666505,6.158272 -2.3737056,7.807065 -0.8735805,7.75695 -0.064717,5.260912 1.1611374,8.239329 2.3408424,7.710289 3.5752478,6.649942 3.259219,4.098495 3.902305,3.993509 5.134908,3.783427 4.763282,2.18842 6.210623,1.766205 6.642235,0.332244 6.37719,-0.996833 5.522741,-2.273964 3.808891,-2.489985 -4.758555,-4.420371 -3.898817,-5.640898 -3.485547,1.587228 -5.573162,0.785888 -5.463317,-0.489294 -5.299113,-2.13636 -4.492608,-3.516422 -3.846708,-4.94995 -2.721249,-5.160247 -1.644861,-7.496318 -0.09274,-6.802343 1.945017,-7.75479 3.012179,-5.733245 3.330345,-4.191491 4.829346,-3.710191 4.450516,-1.904134 5.841246,-0.891632 3.159953,0.378367 z"
         id="path726" /></g></g></svg>
